#N canvas 511 22 702 493 10;
#X declare -lib mrpeach;
#X obj 40 -115 import mrpeach;
#N canvas 782 111 239 278 oscReceive 0;
#X obj 70 37 inlet;
#X obj 70 73 unpackOSC;
#X obj 60 219 s posX;
#X obj 128 220 s posY;
#X obj 70 113 route /laserPos;
#X obj 65 164 unpack 0 0;
#X connect 0 0 1 0;
#X connect 1 0 4 0;
#X connect 4 0 5 0;
#X connect 5 0 2 0;
#X connect 5 1 3 0;
#X restore 41 -44 pd oscReceive;
#X obj 37 37 r posX;
#X obj 141 38 r posY;
#X obj 40 127 print X;
#X obj 134 125 print Y;
#X obj 41 -78 udpreceive 5555;
#X obj 306 47 phasor~ 399;
#X obj 355 87 *~;
#X obj 295 -29 osc~;
#X obj 394 -65 phasor~ 399;
#X floatatom 430 -105 5 0 0 0 - - -;
#X obj 310 11 *~;
#X obj 363 -33 * 10;
#X msg 370 3 100;
#X obj 377 -143 / 20;
#X obj 351 -202 r posX;
#X obj 412 -202 r posY;
#X obj 339 149 dac~;
#X connect 2 0 4 0;
#X connect 3 0 5 0;
#X connect 6 0 1 0;
#X connect 7 0 8 0;
#X connect 8 0 18 0;
#X connect 8 0 18 1;
#X connect 9 0 12 1;
#X connect 10 0 8 1;
#X connect 11 0 10 1;
#X connect 12 0 7 0;
#X connect 13 0 12 0;
#X connect 14 0 7 1;
#X connect 15 0 10 0;
#X connect 16 0 9 0;
#X connect 16 0 15 0;
#X connect 17 0 13 0;
